<mxfile host="app.diagrams.net" modified="2022-02-21T10:07:54.340Z" agent="5.0 (Windows NT 10.0; Win64; x64) AppleWebKit/537.36 (KHTML, like Gecko) Chrome/98.0.4758.82 Safari/537.36" etag="3xBQIJvaNZ68bm1ZxWyI" version="15.9.6" type="github">
  <diagram id="jmcXrmn8KbR-PX1Stm4x" name="Page-1">
    <mxGraphModel dx="1422" dy="794" grid="1" gridSize="10" guides="1" tooltips="1" connect="1" arrows="1" fold="1" page="1" pageScale="1" pageWidth="1169" pageHeight="827" math="0" shadow="0">
      <root>
        <mxCell id="0" />
        <mxCell id="1" parent="0" />
        <mxCell id="4BAr5wa8gltEw5_P-PHC-2" style="edgeStyle=orthogonalEdgeStyle;rounded=0;orthogonalLoop=1;jettySize=auto;html=1;exitX=0.5;exitY=0;exitDx=0;exitDy=0;entryX=0.5;entryY=1;entryDx=0;entryDy=0;" edge="1" parent="1" source="4BAr5wa8gltEw5_P-PHC-4" target="4BAr5wa8gltEw5_P-PHC-7">
          <mxGeometry relative="1" as="geometry" />
        </mxCell>
        <mxCell id="4BAr5wa8gltEw5_P-PHC-4" value="Drupal" style="rounded=1;whiteSpace=wrap;html=1;fillColor=#fff2cc;strokeColor=#d6b656;fontColor=default;" vertex="1" parent="1">
          <mxGeometry x="181" y="680" width="120" height="60" as="geometry" />
        </mxCell>
        <mxCell id="4BAr5wa8gltEw5_P-PHC-5" style="edgeStyle=orthogonalEdgeStyle;rounded=0;orthogonalLoop=1;jettySize=auto;html=1;exitX=0.5;exitY=0;exitDx=0;exitDy=0;entryX=0.5;entryY=1;entryDx=0;entryDy=0;" edge="1" parent="1" source="4BAr5wa8gltEw5_P-PHC-7" target="4BAr5wa8gltEw5_P-PHC-9">
          <mxGeometry relative="1" as="geometry" />
        </mxCell>
        <mxCell id="4BAr5wa8gltEw5_P-PHC-7" value="Drupal Entity API" style="rounded=1;whiteSpace=wrap;html=1;fillColor=#fff2cc;strokeColor=#d6b656;" vertex="1" parent="1">
          <mxGeometry x="181" y="630" width="120" height="30" as="geometry" />
        </mxCell>
        <mxCell id="4BAr5wa8gltEw5_P-PHC-8" style="edgeStyle=orthogonalEdgeStyle;rounded=0;orthogonalLoop=1;jettySize=auto;html=1;exitX=0.5;exitY=1;exitDx=0;exitDy=0;entryX=0.5;entryY=0;entryDx=0;entryDy=0;" edge="1" parent="1" source="4BAr5wa8gltEw5_P-PHC-11" target="4BAr5wa8gltEw5_P-PHC-9">
          <mxGeometry relative="1" as="geometry" />
        </mxCell>
        <mxCell id="4BAr5wa8gltEw5_P-PHC-9" value="Mimer 4" style="rounded=1;whiteSpace=wrap;html=1;fillColor=#fad7ac;strokeColor=#b46504;" vertex="1" parent="1">
          <mxGeometry x="181" y="490" width="120" height="60" as="geometry" />
        </mxCell>
        <mxCell id="4BAr5wa8gltEw5_P-PHC-10" style="edgeStyle=orthogonalEdgeStyle;rounded=0;orthogonalLoop=1;jettySize=auto;html=1;exitX=0.5;exitY=1;exitDx=0;exitDy=0;entryX=0.5;entryY=0;entryDx=0;entryDy=0;" edge="1" parent="1" source="4BAr5wa8gltEw5_P-PHC-13" target="4BAr5wa8gltEw5_P-PHC-11">
          <mxGeometry relative="1" as="geometry" />
        </mxCell>
        <mxCell id="4BAr5wa8gltEw5_P-PHC-11" value="Steffi" style="rounded=1;whiteSpace=wrap;html=1;fillColor=#b1ddf0;strokeColor=#10739e;fontColor=default;" vertex="1" parent="1">
          <mxGeometry x="181" y="340" width="120" height="60" as="geometry" />
        </mxCell>
        <mxCell id="4BAr5wa8gltEw5_P-PHC-13" value="Hydra" style="rounded=1;whiteSpace=wrap;html=1;fillColor=#0050ef;strokeColor=#001DBC;fontColor=#ffffff;" vertex="1" parent="1">
          <mxGeometry x="181" y="200" width="120" height="60" as="geometry" />
        </mxCell>
        <mxCell id="4BAr5wa8gltEw5_P-PHC-28" value="" style="shape=cylinder3;whiteSpace=wrap;html=1;boundedLbl=1;backgroundOutline=1;size=15;" vertex="1" parent="1">
          <mxGeometry x="281" y="720" width="20" height="40" as="geometry" />
        </mxCell>
        <mxCell id="4BAr5wa8gltEw5_P-PHC-40" value="" style="ellipse;shape=cloud;whiteSpace=wrap;html=1;" vertex="1" parent="1">
          <mxGeometry x="271" y="535" width="50" height="30" as="geometry" />
        </mxCell>
        <mxCell id="4BAr5wa8gltEw5_P-PHC-53" style="edgeStyle=orthogonalEdgeStyle;rounded=0;jumpStyle=arc;orthogonalLoop=1;jettySize=auto;html=1;entryX=0.5;entryY=0;entryDx=0;entryDy=0;exitX=1;exitY=1;exitDx=0;exitDy=0;exitPerimeter=0;" edge="1" parent="1" source="4BAr5wa8gltEw5_P-PHC-56" target="4BAr5wa8gltEw5_P-PHC-13">
          <mxGeometry relative="1" as="geometry">
            <mxPoint x="311" y="150" as="sourcePoint" />
            <Array as="points">
              <mxPoint x="203" y="150" />
              <mxPoint x="241" y="150" />
            </Array>
          </mxGeometry>
        </mxCell>
        <mxCell id="4BAr5wa8gltEw5_P-PHC-55" style="edgeStyle=orthogonalEdgeStyle;rounded=0;orthogonalLoop=1;jettySize=auto;html=1;exitX=0;exitY=1;exitDx=0;exitDy=0;exitPerimeter=0;entryX=0.5;entryY=0;entryDx=0;entryDy=0;" edge="1" parent="1" source="4BAr5wa8gltEw5_P-PHC-56" target="4BAr5wa8gltEw5_P-PHC-58">
          <mxGeometry relative="1" as="geometry">
            <Array as="points">
              <mxPoint x="173" y="150" />
              <mxPoint x="101" y="150" />
            </Array>
          </mxGeometry>
        </mxCell>
        <mxCell id="4BAr5wa8gltEw5_P-PHC-56" value="Bruger" style="shape=umlActor;verticalLabelPosition=bottom;verticalAlign=top;html=1;outlineConnect=0;" vertex="1" parent="1">
          <mxGeometry x="173" y="30" width="30" height="60" as="geometry" />
        </mxCell>
        <mxCell id="4BAr5wa8gltEw5_P-PHC-57" style="edgeStyle=orthogonalEdgeStyle;rounded=0;orthogonalLoop=1;jettySize=auto;html=1;exitX=0.5;exitY=1;exitDx=0;exitDy=0;entryX=0.25;entryY=0;entryDx=0;entryDy=0;jumpStyle=arc;" edge="1" parent="1" source="4BAr5wa8gltEw5_P-PHC-58" target="4BAr5wa8gltEw5_P-PHC-11">
          <mxGeometry relative="1" as="geometry">
            <Array as="points">
              <mxPoint x="101" y="320" />
              <mxPoint x="211" y="320" />
            </Array>
          </mxGeometry>
        </mxCell>
        <mxCell id="4BAr5wa8gltEw5_P-PHC-58" value="RSS Service" style="rounded=1;whiteSpace=wrap;html=1;fillColor=#0050ef;strokeColor=#001DBC;fontColor=#ffffff;" vertex="1" parent="1">
          <mxGeometry x="41" y="200" width="120" height="60" as="geometry" />
        </mxCell>
        <mxCell id="4BAr5wa8gltEw5_P-PHC-71" value="" style="ellipse;shape=cloud;whiteSpace=wrap;html=1;fillColor=default;strokeColor=default;fontColor=default;" vertex="1" parent="1">
          <mxGeometry x="750" y="20" width="50" height="30" as="geometry" />
        </mxCell>
        <mxCell id="4BAr5wa8gltEw5_P-PHC-72" value="" style="shape=cylinder3;whiteSpace=wrap;html=1;boundedLbl=1;backgroundOutline=1;size=15;fillColor=default;strokeColor=default;fontColor=default;" vertex="1" parent="1">
          <mxGeometry x="765" y="60" width="20" height="40" as="geometry" />
        </mxCell>
        <mxCell id="4BAr5wa8gltEw5_P-PHC-73" value="Opbevaring af kildedata" style="text;html=1;align=center;verticalAlign=middle;resizable=0;points=[];autosize=1;strokeColor=none;fillColor=none;fontColor=default;" vertex="1" parent="1">
          <mxGeometry x="790" y="70" width="140" height="20" as="geometry" />
        </mxCell>
        <mxCell id="4BAr5wa8gltEw5_P-PHC-74" value="Midlertidigt lager / Cache" style="text;html=1;align=center;verticalAlign=middle;resizable=0;points=[];autosize=1;strokeColor=none;fillColor=none;fontColor=default;" vertex="1" parent="1">
          <mxGeometry x="800" y="30" width="150" height="20" as="geometry" />
        </mxCell>
        <mxCell id="4BAr5wa8gltEw5_P-PHC-75" value="Front end product" style="rounded=1;whiteSpace=wrap;html=1;fillColor=#0050ef;strokeColor=#001DBC;fontColor=#ffffff;" vertex="1" parent="1">
          <mxGeometry x="950" y="10" width="70" height="30" as="geometry" />
        </mxCell>
        <mxCell id="4BAr5wa8gltEw5_P-PHC-76" value="Product Service" style="rounded=1;whiteSpace=wrap;html=1;fillColor=#ffcc99;strokeColor=#36393d;fontColor=default;" vertex="1" parent="1">
          <mxGeometry x="950" y="50" width="70" height="30" as="geometry" />
        </mxCell>
        <mxCell id="4BAr5wa8gltEw5_P-PHC-77" value="Content Aggregation" style="rounded=1;whiteSpace=wrap;html=1;fillColor=#b1ddf0;strokeColor=#10739e;fontColor=default;" vertex="1" parent="1">
          <mxGeometry x="950" y="90" width="70" height="30" as="geometry" />
        </mxCell>
        <mxCell id="4BAr5wa8gltEw5_P-PHC-78" value="Platform Service" style="rounded=1;whiteSpace=wrap;html=1;fillColor=#f8cecc;strokeColor=#b85450;fontColor=default;" vertex="1" parent="1">
          <mxGeometry x="1030" y="10" width="70" height="30" as="geometry" />
        </mxCell>
        <mxCell id="4BAr5wa8gltEw5_P-PHC-79" value="Content Service" style="rounded=1;whiteSpace=wrap;html=1;fillColor=#fad7ac;strokeColor=#b46504;fontColor=default;" vertex="1" parent="1">
          <mxGeometry x="1030" y="50" width="70" height="30" as="geometry" />
        </mxCell>
        <mxCell id="4BAr5wa8gltEw5_P-PHC-80" value="Content Source" style="rounded=1;whiteSpace=wrap;html=1;fillColor=#fff2cc;strokeColor=#d6b656;fontColor=default;" vertex="1" parent="1">
          <mxGeometry x="1030" y="90" width="70" height="30" as="geometry" />
        </mxCell>
        <mxCell id="4BAr5wa8gltEw5_P-PHC-81" value="" style="shape=message;html=1;outlineConnect=0;fillColor=default;strokeColor=default;fontColor=default;" vertex="1" parent="1">
          <mxGeometry x="765" y="106" width="20" height="14" as="geometry" />
        </mxCell>
        <mxCell id="4BAr5wa8gltEw5_P-PHC-82" value="Event drevent kommunikation" style="text;html=1;align=center;verticalAlign=middle;resizable=0;points=[];autosize=1;strokeColor=none;fillColor=none;fontColor=default;" vertex="1" parent="1">
          <mxGeometry x="780" y="100" width="170" height="20" as="geometry" />
        </mxCell>
        <mxCell id="4BAr5wa8gltEw5_P-PHC-83" style="edgeStyle=orthogonalEdgeStyle;rounded=0;orthogonalLoop=1;jettySize=auto;html=1;exitX=0.5;exitY=0;exitDx=0;exitDy=0;entryX=0.5;entryY=1;entryDx=0;entryDy=0;" edge="1" parent="1" source="4BAr5wa8gltEw5_P-PHC-84" target="4BAr5wa8gltEw5_P-PHC-86">
          <mxGeometry relative="1" as="geometry" />
        </mxCell>
        <mxCell id="4BAr5wa8gltEw5_P-PHC-84" value="Drupal" style="rounded=1;whiteSpace=wrap;html=1;fillColor=#fff2cc;strokeColor=#d6b656;fontColor=default;" vertex="1" parent="1">
          <mxGeometry x="510" y="680" width="120" height="60" as="geometry" />
        </mxCell>
        <mxCell id="4BAr5wa8gltEw5_P-PHC-85" style="edgeStyle=orthogonalEdgeStyle;rounded=0;orthogonalLoop=1;jettySize=auto;html=1;exitX=0.5;exitY=0;exitDx=0;exitDy=0;entryX=0.5;entryY=1;entryDx=0;entryDy=0;" edge="1" parent="1" source="4BAr5wa8gltEw5_P-PHC-86" target="4BAr5wa8gltEw5_P-PHC-88">
          <mxGeometry relative="1" as="geometry" />
        </mxCell>
        <mxCell id="4BAr5wa8gltEw5_P-PHC-100" style="edgeStyle=orthogonalEdgeStyle;rounded=0;orthogonalLoop=1;jettySize=auto;html=1;exitX=0.25;exitY=0;exitDx=0;exitDy=0;entryX=0.5;entryY=1;entryDx=0;entryDy=0;" edge="1" parent="1" source="4BAr5wa8gltEw5_P-PHC-86" target="4BAr5wa8gltEw5_P-PHC-99">
          <mxGeometry relative="1" as="geometry" />
        </mxCell>
        <mxCell id="4BAr5wa8gltEw5_P-PHC-86" value="Drupal Entity API" style="rounded=1;whiteSpace=wrap;html=1;fillColor=#fff2cc;strokeColor=#d6b656;" vertex="1" parent="1">
          <mxGeometry x="510" y="630" width="120" height="30" as="geometry" />
        </mxCell>
        <mxCell id="4BAr5wa8gltEw5_P-PHC-88" value="Mimer 4" style="rounded=1;whiteSpace=wrap;html=1;fillColor=#fad7ac;strokeColor=#b46504;" vertex="1" parent="1">
          <mxGeometry x="510" y="490" width="120" height="60" as="geometry" />
        </mxCell>
        <mxCell id="4BAr5wa8gltEw5_P-PHC-89" style="edgeStyle=orthogonalEdgeStyle;rounded=0;orthogonalLoop=1;jettySize=auto;html=1;exitX=0.5;exitY=1;exitDx=0;exitDy=0;entryX=0.5;entryY=0;entryDx=0;entryDy=0;" edge="1" parent="1" source="4BAr5wa8gltEw5_P-PHC-91" target="4BAr5wa8gltEw5_P-PHC-90">
          <mxGeometry relative="1" as="geometry" />
        </mxCell>
        <mxCell id="4BAr5wa8gltEw5_P-PHC-103" style="edgeStyle=orthogonalEdgeStyle;rounded=0;orthogonalLoop=1;jettySize=auto;html=1;exitX=0;exitY=0.5;exitDx=0;exitDy=0;entryX=1;entryY=0.5;entryDx=0;entryDy=0;" edge="1" parent="1" source="4BAr5wa8gltEw5_P-PHC-90" target="4BAr5wa8gltEw5_P-PHC-101">
          <mxGeometry relative="1" as="geometry" />
        </mxCell>
        <mxCell id="4BAr5wa8gltEw5_P-PHC-90" value="Steffi" style="rounded=1;whiteSpace=wrap;html=1;fillColor=#b1ddf0;strokeColor=#10739e;fontColor=default;" vertex="1" parent="1">
          <mxGeometry x="510" y="340" width="120" height="60" as="geometry" />
        </mxCell>
        <mxCell id="4BAr5wa8gltEw5_P-PHC-91" value="Hydra" style="rounded=1;whiteSpace=wrap;html=1;fillColor=#0050ef;strokeColor=#001DBC;fontColor=#ffffff;" vertex="1" parent="1">
          <mxGeometry x="510" y="200" width="120" height="60" as="geometry" />
        </mxCell>
        <mxCell id="4BAr5wa8gltEw5_P-PHC-92" value="" style="shape=cylinder3;whiteSpace=wrap;html=1;boundedLbl=1;backgroundOutline=1;size=15;" vertex="1" parent="1">
          <mxGeometry x="610" y="720" width="20" height="40" as="geometry" />
        </mxCell>
        <mxCell id="4BAr5wa8gltEw5_P-PHC-93" value="" style="ellipse;shape=cloud;whiteSpace=wrap;html=1;" vertex="1" parent="1">
          <mxGeometry x="600" y="535" width="50" height="30" as="geometry" />
        </mxCell>
        <mxCell id="4BAr5wa8gltEw5_P-PHC-94" style="edgeStyle=orthogonalEdgeStyle;rounded=0;jumpStyle=arc;orthogonalLoop=1;jettySize=auto;html=1;entryX=0.5;entryY=0;entryDx=0;entryDy=0;exitX=1;exitY=1;exitDx=0;exitDy=0;exitPerimeter=0;" edge="1" parent="1" source="4BAr5wa8gltEw5_P-PHC-96" target="4BAr5wa8gltEw5_P-PHC-91">
          <mxGeometry relative="1" as="geometry">
            <mxPoint x="640" y="150" as="sourcePoint" />
            <Array as="points">
              <mxPoint x="514" y="150" />
              <mxPoint x="570" y="150" />
            </Array>
          </mxGeometry>
        </mxCell>
        <mxCell id="4BAr5wa8gltEw5_P-PHC-95" style="edgeStyle=orthogonalEdgeStyle;rounded=0;orthogonalLoop=1;jettySize=auto;html=1;exitX=0;exitY=1;exitDx=0;exitDy=0;exitPerimeter=0;entryX=0.5;entryY=0;entryDx=0;entryDy=0;" edge="1" parent="1" source="4BAr5wa8gltEw5_P-PHC-96" target="4BAr5wa8gltEw5_P-PHC-98">
          <mxGeometry relative="1" as="geometry">
            <Array as="points">
              <mxPoint x="484" y="150" />
              <mxPoint x="421" y="150" />
            </Array>
          </mxGeometry>
        </mxCell>
        <mxCell id="4BAr5wa8gltEw5_P-PHC-96" value="Bruger" style="shape=umlActor;verticalLabelPosition=bottom;verticalAlign=top;html=1;outlineConnect=0;" vertex="1" parent="1">
          <mxGeometry x="484" y="30" width="30" height="60" as="geometry" />
        </mxCell>
        <mxCell id="4BAr5wa8gltEw5_P-PHC-97" style="edgeStyle=orthogonalEdgeStyle;rounded=0;orthogonalLoop=1;jettySize=auto;html=1;exitX=0.5;exitY=1;exitDx=0;exitDy=0;entryX=0.5;entryY=0;entryDx=0;entryDy=0;jumpStyle=arc;" edge="1" parent="1" source="4BAr5wa8gltEw5_P-PHC-98" target="4BAr5wa8gltEw5_P-PHC-101">
          <mxGeometry relative="1" as="geometry">
            <Array as="points">
              <mxPoint x="420" y="260" />
            </Array>
          </mxGeometry>
        </mxCell>
        <mxCell id="4BAr5wa8gltEw5_P-PHC-98" value="RSS Service" style="rounded=1;whiteSpace=wrap;html=1;fillColor=#0050ef;strokeColor=#001DBC;fontColor=#ffffff;" vertex="1" parent="1">
          <mxGeometry x="361" y="200" width="120" height="60" as="geometry" />
        </mxCell>
        <mxCell id="4BAr5wa8gltEw5_P-PHC-102" style="edgeStyle=orthogonalEdgeStyle;rounded=0;orthogonalLoop=1;jettySize=auto;html=1;exitX=0.5;exitY=0;exitDx=0;exitDy=0;entryX=0.5;entryY=1;entryDx=0;entryDy=0;" edge="1" parent="1" source="4BAr5wa8gltEw5_P-PHC-99" target="4BAr5wa8gltEw5_P-PHC-101">
          <mxGeometry relative="1" as="geometry" />
        </mxCell>
        <mxCell id="4BAr5wa8gltEw5_P-PHC-99" value="CSX" style="rounded=1;whiteSpace=wrap;html=1;fillColor=#fad7ac;strokeColor=#b46504;" vertex="1" parent="1">
          <mxGeometry x="360" y="490" width="120" height="60" as="geometry" />
        </mxCell>
        <mxCell id="4BAr5wa8gltEw5_P-PHC-101" value="CAS" style="rounded=1;whiteSpace=wrap;html=1;fillColor=#b1ddf0;strokeColor=#10739e;fontColor=default;" vertex="1" parent="1">
          <mxGeometry x="360" y="340" width="120" height="60" as="geometry" />
        </mxCell>
        <mxCell id="4BAr5wa8gltEw5_P-PHC-104" value="" style="shape=message;html=1;outlineConnect=0;fillColor=default;strokeColor=default;fontColor=default;" vertex="1" parent="1">
          <mxGeometry x="430" y="440" width="20" height="14" as="geometry" />
        </mxCell>
        <mxCell id="4BAr5wa8gltEw5_P-PHC-105" value="" style="endArrow=none;html=1;rounded=0;strokeColor=#FF0000;strokeWidth=4;" edge="1" parent="1">
          <mxGeometry width="50" height="50" relative="1" as="geometry">
            <mxPoint x="505" y="567" as="sourcePoint" />
            <mxPoint x="635" y="473" as="targetPoint" />
          </mxGeometry>
        </mxCell>
        <mxCell id="4BAr5wa8gltEw5_P-PHC-106" value="" style="endArrow=none;html=1;rounded=0;strokeColor=#FF0000;strokeWidth=4;" edge="1" parent="1">
          <mxGeometry width="50" height="50" relative="1" as="geometry">
            <mxPoint x="510" y="475" as="sourcePoint" />
            <mxPoint x="640" y="565" as="targetPoint" />
          </mxGeometry>
        </mxCell>
        <mxCell id="4BAr5wa8gltEw5_P-PHC-107" value="&lt;ul&gt;&lt;li&gt;RSS Service trækker i dag data fra Steffi&lt;/li&gt;&lt;li&gt;CSX og CAS etableres og data nødvendigt for RSS gøres tilgængeligt i CAS&lt;/li&gt;&lt;li&gt;RSS Service migreres til at trække data fra CAS&lt;/li&gt;&lt;li&gt;CAS udvides over tid til at dække al data fra Drupal&lt;/li&gt;&lt;li&gt;Når CAS udstiller Mimer4s data kan Steffi migreres til at trække fra CAS&lt;/li&gt;&lt;li&gt;Mimer 4 kan lukkes&lt;/li&gt;&lt;/ul&gt;" style="shape=note;whiteSpace=wrap;html=1;backgroundOutline=1;darkOpacity=0.05;align=left;fillColor=#fff2cc;strokeColor=#d6b656;" vertex="1" parent="1">
          <mxGeometry x="680" y="200" width="260" height="360" as="geometry" />
        </mxCell>
      </root>
    </mxGraphModel>
  </diagram>
</mxfile>
